<?xml version="1.0" standalone="no"?>
<!DOCTYPE svg PUBLIC "-//W3C//DTD SVG 20010904//EN"
 "http://www.w3.org/TR/2001/REC-SVG-20010904/DTD/svg10.dtd">
<svg version="1.0" xmlns="http://www.w3.org/2000/svg"
 width="260.000000pt" height="260.000000pt" viewBox="0 0 260.000000 260.000000"
 preserveAspectRatio="xMidYMid meet">
<metadata>
Created by potrace 1.11, written by Peter Selinger 2001-2013
</metadata>
<g transform="translate(0.000000,260.000000) scale(0.100000,-0.100000)"
fill="#000000" stroke="none">
<path d="M465 2245 c-49 -7 -124 -25 -165 -39 -41 -14 -80 -26 -87 -26 -8 0
-18 -10 -24 -22 -6 -13 -38 -41 -71 -62 l-61 -39 6 -86 c7 -93 20 -143 48
-179 13 -18 15 -30 8 -60 -5 -20 -8 -83 -7 -139 1 -61 -3 -107 -9 -115 -6 -7
-16 -31 -22 -53 -13 -50 -18 -623 -5 -634 5 -4 28 -14 52 -21 23 -7 42 -15 42
-17 0 -2 -7 -15 -16 -29 -13 -19 -14 -28 -5 -37 6 -6 11 -38 11 -72 0 -63 18
-105 45 -105 12 0 10 -7 -5 -32 -11 -18 -20 -48 -20 -66 0 -43 18 -49 175 -61
144 -11 318 -1 546 32 l156 22 67 -23 c160 -55 327 -52 432 8 l53 29 47 -21
c32 -14 77 -22 135 -26 99 -5 158 10 233 60 l47 30 79 -12 c198 -31 335 29
376 166 19 63 18 117 -6 259 -11 66 -20 139 -20 162 0 40 -27 83 -53 83 -5 0
2 13 16 30 31 36 47 107 47 202 0 40 7 90 17 117 18 51 17 53 -33 138 -19 32
-19 32 5 57 23 25 23 26 10 108 -7 46 -13 153 -13 238 l-1 154 -65 22 c-56 19
-95 23 -277 28 -117 4 -219 9 -227 12 -22 9 -64 -38 -71 -80 l-7 -36 -39 34
c-68 62 -175 71 -303 26 -33 -11 -60 -20 -60 -20 -1 0 -10 16 -21 36 -22 40
-60 64 -104 64 -36 0 -85 -54 -103 -112 -10 -36 -28 -52 -28 -26 0 23 -54 81
-89 95 -24 11 -63 15 -116 14 -44 0 -141 8 -215 19 -151 22 -177 23 -305 5z
m352 -106 c79 -10 169 -19 201 -19 76 0 98 -16 111 -83 20 -102 15 -157 -15
-157 -8 0 -22 -16 -30 -35 -12 -30 -19 -35 -47 -35 -17 0 -56 -9 -84 -20 -111
-42 -298 -44 -526 -5 -128 22 -246 50 -259 63 -33 33 -27 135 11 184 41 52
191 110 336 131 42 6 136 -1 302 -24z m547 -10 c14 -23 20 -60 24 -139 6 -138
2 -155 -48 -180 -73 -37 -72 -38 -68 123 3 124 6 148 26 189 26 52 39 53 66 7z
m996 -8 l35 -7 7 -144 c4 -80 9 -169 12 -197 l5 -53 -87 -1 c-48 0 -153 -10
-233 -22 l-147 -23 -5 81 c-3 44 -10 123 -17 175 -8 56 -10 118 -6 151 l7 57
197 -5 c108 -3 213 -8 232 -12z m-614 -19 c20 -13 46 -111 43 -160 -3 -31 2
-55 13 -72 9 -14 20 -47 23 -73 7 -44 5 -51 -21 -78 -30 -32 -98 -60 -199 -84
-85 -19 -81 -20 -95 18 -14 36 -30 397 -19 411 26 32 221 61 255 38z m-578
-387 c85 -7 146 -34 167 -76 17 -33 17 -43 -1 -184 l-6 -51 -92 -13 c-50 -7
-120 -16 -154 -20 l-64 -7 -26 35 c-15 20 -54 69 -87 110 l-60 74 43 37 c68
61 153 108 187 104 17 -2 59 -6 93 -9z m239 -7 c-3 -8 -6 -5 -6 6 -1 11 2 17
5 13 3 -3 4 -12 1 -19z m-1053 -24 c19 -7 21 -61 5 -97 -11 -25 -47 -37 -116
-37 -28 0 -33 4 -42 35 -10 36 -5 71 12 93 10 12 112 17 141 6z m371 -36 c2
-7 6 -37 10 -66 l6 -53 -38 -16 c-29 -12 -60 -14 -131 -11 -51 3 -95 8 -99 12
-3 3 -6 20 -6 36 0 44 36 77 97 90 103 21 156 23 161 8z m1686 -60 c31 -42 31
-45 26 -130 -14 -229 -91 -317 -243 -279 -25 6 -50 9 -56 5 -6 -4 -5 2 2 15 8
15 9 51 6 109 -4 48 -9 126 -12 175 l-5 87 35 15 c29 12 75 22 208 44 5 0 22
-18 39 -41z m-496 -49 c21 -6 54 -26 73 -45 40 -40 40 -53 -1 -232 -29 -122
-47 -168 -64 -165 -6 1 -62 -7 -125 -18 -80 -15 -130 -19 -172 -14 -58 6 -144
30 -158 43 -3 4 -11 49 -17 101 -7 51 -18 109 -26 128 -13 30 -12 44 2 118 14
70 19 83 32 76 9 -4 59 -2 111 4 126 16 296 18 345 4z m-1625 -99 c36 -5 178
-13 317 -17 l252 -6 28 -29 c27 -29 28 -29 31 -198 5 -181 -8 -326 -34 -402
-18 -54 -38 -61 -119 -41 -28 7 -142 24 -255 38 -113 14 -236 31 -274 38 -64
12 -71 16 -79 42 -15 46 -13 357 3 483 l14 113 25 -5 c14 -3 55 -10 91 -16z
m1051 -205 c3 -33 9 -75 13 -92 l8 -33 -84 0 c-116 0 -208 17 -235 42 -18 16
-23 33 -23 68 l0 47 98 15 c53 9 124 15 157 14 l60 -1 6 -60z m1036 -161 c33
-9 41 -49 47 -247 8 -214 2 -246 -54 -283 -52 -35 -102 -39 -192 -19 l-76 17
-11 66 c-14 83 -31 455 -22 464 3 4 22 9 41 11 45 6 238 0 267 -9z m-1202 -49
c237 -11 316 -27 379 -76 34 -26 61 -85 48 -102 -5 -7 -12 -56 -15 -110 -3
-54 -10 -104 -16 -110 -5 -7 -15 -43 -21 -80 -14 -79 -32 -100 -95 -116 -88
-22 -226 -3 -342 47 -37 17 -77 32 -88 34 -18 3 -20 10 -17 88 2 47 -1 107 -6
134 -7 34 -6 82 5 165 7 64 12 124 9 134 -3 13 -1 15 8 8 6 -5 74 -13 151 -16z
m754 -40 c3 -4 6 -52 5 -108 -1 -167 -47 -249 -125 -227 -20 6 -42 17 -49 25
-15 18 -22 271 -9 297 13 24 156 34 178 13z m-1473 -271 c82 -8 212 -24 288
-34 77 -10 143 -17 147 -14 10 6 19 -23 19 -62 l0 -34 -72 0 c-40 0 -134 7
-208 15 -74 9 -192 16 -262 16 l-128 1 0 48 c0 91 -10 88 216 64z m1527 -187
c-12 -57 -43 -72 -150 -72 -67 0 -86 4 -110 21 -31 23 -38 43 -29 80 6 24 8
25 79 18 80 -7 141 5 179 35 l23 19 8 -29 c4 -17 4 -49 0 -72z m-1233 -36
c102 -10 170 -19 152 -20 -18 0 -58 -9 -90 -20 -49 -16 -92 -18 -304 -20 -137
0 -248 3 -248 7 0 4 7 16 15 26 8 11 15 29 15 39 0 19 5 20 138 13 75 -4 220
-16 322 -25z"/>
</g>
</svg>
